<?xml version="1.0" encoding="UTF-8"?>
<svg version="1.1" xmlns="http://www.w3.org/2000/svg" width="512" height="512">
<path d="M0 0 C4.38906801 3.27777258 8.21271156 7.055876 12 11 C13.01320313 12.01900391 13.01320313 12.01900391 14.046875 13.05859375 C28.1401998 28.05613629 32.56971754 47.54272836 32.26953125 67.5 C31.49716322 89.567658 20.18542471 106.81457529 5 122 C23.81 134.375 23.81 134.375 43 147 C40.74182324 162.8072373 40.74182324 162.8072373 38.625 167.9375 C38.22539062 168.93652344 37.82578125 169.93554688 37.4140625 170.96484375 C35.79302253 174.44425826 33.9458589 177.69203986 32 181 C28.52085157 181.0294191 25.04173583 181.04693792 21.5625 181.0625 C20.58861328 181.07087891 19.61472656 181.07925781 18.61132812 181.08789062 C12.65221031 181.10782078 6.90932317 180.77609518 1 180 C4.08918847 214.75048502 9.61711845 247.16179249 32 275 C32.57492187 275.72960937 33.14984375 276.45921875 33.7421875 277.2109375 C38.48958603 282.95778836 44.18806247 287.37651935 50 292 C52.0251132 293.68236148 54.04591944 295.36992017 56.0625 297.0625 C59.77981047 300.168284 63.52159925 303.23451077 67.3125 306.25 C68.12203125 306.89839844 68.9315625 307.54679687 69.765625 308.21484375 C71.12306234 309.29936973 72.48618526 310.37689572 73.859375 311.44140625 C94.29378168 327.89204099 103.03319009 353.20800417 105.91503906 378.39306641 C106.35368994 382.59012206 106.69156385 386.79161764 107 391 C107.05881348 391.71913574 107.11762695 392.43827148 107.17822266 393.17919922 C107.32306402 395.09616318 107.41334692 397.01702582 107.5 398.9375 C107.57734375 400.52884766 107.57734375 400.52884766 107.65625 402.15234375 C106.88069052 405.51771794 105.51183675 406.87904781 102.75683594 408.90795898 C40.25856986 447.75658936 -98.49940433 432.59479623 -166.70605469 416.92651367 C-173.71995764 415.19544236 -180.4856252 413.17524558 -187 410 C-187.69609375 409.70351563 -188.3921875 409.40703125 -189.109375 409.1015625 C-190.8125 408.125 -190.8125 408.125 -193 405 C-193.70745327 399.94865143 -193.38962779 395.05730133 -193 390 C-192.95311035 389.26910156 -192.9062207 388.53820312 -192.85791016 387.78515625 C-190.91820842 358.80889995 -182.33946581 331.67679681 -160.41015625 311.6328125 C-157.6477227 309.36470916 -154.83236691 307.18012975 -152 305 C-147.30554857 301.2502407 -142.65618252 297.44432152 -138.0078125 293.63769531 C-136.70744631 292.5770367 -135.40299635 291.52135722 -134.09375 290.47167969 C-104.95876257 267.09270407 -92.80520225 233.47755872 -88.68359375 197.21630859 C-88.06510141 191.48253226 -87.51447592 185.74397233 -87 180 C-88.24652344 180.16371094 -89.49304688 180.32742187 -90.77734375 180.49609375 C-96.3795572 181.11856191 -101.93205157 181.11094198 -107.5625 181.0625 C-108.57119141 181.05798828 -109.57988281 181.05347656 -110.61914062 181.04882812 C-113.07949147 181.03716769 -115.53971239 181.02080378 -118 181 C-122.1129051 173.17984618 -125.98240173 165.65947288 -128 157 C-128.26941406 156.24203125 -128.53882813 155.4840625 -128.81640625 154.703125 C-129.54184222 152.05688059 -129.66320407 150.67345426 -129 148 C-126.81567383 145.91650391 -126.81567383 145.91650391 -123.83203125 143.7890625 C-123.02937836 143.21140892 -123.02937836 143.21140892 -122.21051025 142.62208557 C-116.01612245 138.20811693 -109.63990565 134.06057045 -103.25 129.9375 C-102.05183176 129.15989271 -100.85391397 128.38189936 -99.65625 127.60351562 C-96.77368877 125.73124563 -93.8878371 123.86412517 -91 122 C-91.77561279 121.22760986 -92.55122559 120.45521973 -93.3503418 119.65942383 C-109.23952303 103.71168116 -118.23647546 85.17536769 -118.5 62.5 C-118.30161448 44.0218057 -112.48556091 26.90379907 -100 13 C-98.90751953 11.76830078 -98.90751953 11.76830078 -97.79296875 10.51171875 C-72.57383803 -16.33708116 -30.50558669 -19.72247638 0 0 Z " fill="#33691E" transform="translate(299,44)"/>
<path d="M0 0 C0.62116699 0.23605957 1.24233398 0.47211914 1.88232422 0.71533203 C9.48089222 3.70275382 15.18013344 6.85547697 18.90234375 14.40234375 C19.26457031 15.25957031 19.62679687 16.11679687 20 17 C20.37253906 17.80566406 20.74507812 18.61132812 21.12890625 19.44140625 C22.21218693 21.93175261 23.13086923 24.42737293 24 27 C24.45052734 28.31871094 24.45052734 28.31871094 24.91015625 29.6640625 C30.24171709 47.66737957 27.45488119 68.44362868 19 85 C9.502175 101.33478074 -3.5562812 112.91447773 -21 120 C-16.95128387 126.2649433 -12.62401104 132.21181354 -8 138.0625 C-6.23292919 140.30992084 -4.4678872 142.55850947 -2.71484375 144.81689453 C-1.56271741 146.28362484 -0.3876209 147.73257338 0.80859375 149.16357422 C1.64583984 150.19442139 1.64583984 150.19442139 2.5 151.24609375 C3.0053125 151.84993896 3.510625 152.45378418 4.03125 153.07592773 C5.77042255 156.53016637 4.15158867 159.50276993 3.07617188 163.03027344 C2.52799805 164.67817871 2.52799805 164.67817871 1.96875 166.359375 C1.57042969 167.55691406 1.17210937 168.75445312 0.76171875 169.98828125 C0.34535156 171.22964844 -0.07101562 172.47101563 -0.5 173.75 C-0.92077888 175.019463 -1.34135385 176.28899361 -1.76171875 177.55859375 C-2.16003906 178.75097656 -2.55835938 179.94335938 -2.96875 181.171875 C-3.33419922 182.2659668 -3.69964844 183.36005859 -4.07617188 184.48730469 C-5 187 -5 187 -6 188 C-8.183333 188.12419143 -10.37068095 188.17804307 -12.55737305 188.20532227 C-13.24394485 188.21522186 -13.93051666 188.22512146 -14.63789368 188.23532104 C-16.92913295 188.26711769 -19.22039168 188.29181255 -21.51171875 188.31640625 C-23.116689 188.33700825 -24.72165422 188.3580055 -26.32661438 188.37937927 C-29.7120984 188.4234671 -33.09760048 188.46433554 -36.4831543 188.50268555 C-40.7561023 188.55110876 -45.02896008 188.60481462 -49.30181694 188.66065407 C-66.86814977 188.88965931 -84.43183378 189.07797073 -102 189 C-106.1032297 181.12955002 -109.97500467 173.69122084 -112 165 C-112.40412109 163.86304688 -112.40412109 163.86304688 -112.81640625 162.703125 C-113.54184222 160.05688059 -113.66320407 158.67345426 -113 156 C-110.81567383 153.91650391 -110.81567383 153.91650391 -107.83203125 151.7890625 C-107.29692932 151.40396011 -106.76182739 151.01885773 -106.21051025 150.62208557 C-100.01612245 146.20811693 -93.63990565 142.06057045 -87.25 137.9375 C-86.05183176 137.15989271 -84.85391397 136.38189936 -83.65625 135.60351562 C-80.77368877 133.73124563 -77.8878371 131.86412517 -75 130 C-75.77561279 129.22760986 -76.55122559 128.45521973 -77.3503418 127.65942383 C-93.23952303 111.71168116 -102.23647546 93.17536769 -102.5 70.5 C-102.30161448 52.0218057 -96.48556091 34.90379907 -84 21 C-83.27167969 20.17886719 -82.54335937 19.35773437 -81.79296875 18.51171875 C-61.40734596 -3.19123023 -27.85575749 -10.77771558 0 0 Z " fill="#679F37" transform="translate(283,36)"/>
<path d="M0 0 C41.4314386 4.57360037 41.4314386 4.57360037 54.84375 18.98046875 C63.7812692 30.30570754 63.11601717 42.15836574 62 56 C57.48717809 93.5118951 44.77580728 136.35852338 15.10546875 161.46875 C5.43659685 168.50065683 -5.23797186 171.09355357 -17.05078125 171.16796875 C-17.70238724 171.17224884 -18.35399323 171.17652893 -19.02534485 171.18093872 C-21.12113425 171.19087543 -23.21669162 171.19099989 -25.3125 171.1875 C-26.03097107 171.18656342 -26.74944214 171.18562683 -27.48968506 171.18466187 C-51.60272149 171.11643581 -74.2858799 167.3143586 -97 159 C-92.94045461 140.26688952 -78.71852142 125.3291418 -64 114 C-59.30554857 110.2502407 -54.65618252 106.44432152 -50.0078125 102.63769531 C-48.70744631 101.5770367 -47.40299635 100.52135722 -46.09375 99.47167969 C-28.28893023 85.18444348 -16.44644879 67.66482979 -9 46 C-8.77715332 45.3517627 -8.55430664 44.70352539 -8.32470703 44.03564453 C-3.57745139 29.74504469 -1.87559335 14.88702507 0 0 Z " fill="#679E37" transform="translate(211,235)"/>
<path d="M0 0 C3.15211229 3.57239393 3.52345399 6.93774779 3.34765625 11.5390625 C2.22161417 19.50992218 -1.80692256 26.02192249 -7 32 C-7.57492188 32.66902344 -8.14984375 33.33804688 -8.7421875 34.02734375 C-14.0348184 39.74821657 -20.10007202 43.45628699 -27 47 C-27.70125 47.36351562 -28.4025 47.72703125 -29.125 48.1015625 C-34.81860985 50.63996356 -40.87387983 50.76684205 -47 50 C-50.91271318 48.21525364 -52.47414901 46.77124813 -54.875 43.25 C-57.19082764 36.55983127 -56.47021807 32.42505583 -53.5625 26.125 C-46.69686153 13.34459788 -35.46942115 3.39668861 -22 -2 C-14.75291648 -3.82041208 -6.28115688 -4.55383874 0 0 Z " fill="#9BCB64" transform="translate(261,46)"/>
</svg>
